PathFileType	4	(X/Y/Z)	C:/Users/beibeiliu/ov580/test_trc/User3\sequence.9_training_dense_left.trc
DataRate	CameraRate	NumFrames	NumMarkers	Units	OrigDataRate	OrigDataStartFrame	OrigNumFrames
120	120	17	19	mm	120	187	213
Frame#	Time	ThumbCMC			ThumbMCP			ThumbIP			ThumbTip			IndexMCP			IndexPIP			IndexTip			MiddleMCP			MiddlePIP			MiddleTip			RingMCP			RingPIP			RingTip			PinkyMCP			PinkyPIP			PinkyTip			BackHand1			BackHand2			BackHand3	
		X0	Y0	Z0	X1	Y1	Z1	X2	Y2	Z2	X3	Y3	Z3	X4	Y4	Z4	X5	Y5	Z5	X6	Y6	Z6	X7	Y7	Z7	X8	Y8	Z8	X9	Y9	Z9	X10	Y10	Z10	X11	Y11	Z11	X12	Y12	Z12	X13	Y13	Z13	X14	Y14	Z14	X15	Y15	Z15	X16	Y16	Z16	X17	Y17	Z17	X18	Y18	Z18	
186	1.55	-187.404	22.4322	16.3386	-158.435	19.0384	-3.68302	-136.786	11.9543	-24.5756	-128.322	-6.14415	-37.8661	-174.709	11.6099	-56.9278	-142.035	11.2479	-73.6423	-119.352	6.7208	-59.0492	-176.18	-13.4257	-62.5356	-140.747	-15.014	-67.442	-137.199	-14.3528	-29.2621	-162.028	-30.2774	-47.3434	-137.527	-34.1727	-30.2818	-154.846	-23.2017	-1.37905	-164.429	-50.5467	-30.2363	-145.574	-40.5729	-14.6319	-162.769	-25.3212	7.5505	-216.532	-30.1266	-15.5973	-230.093	-25.9242	8.51449	-218.478	7.78504	-1.262	
187	1.55833	-189.112	18.205	16.4983	-160.744	18.1349	-1.90534	-137.329	10.7077	-24.3475	-128.185	-7.96158	-39.248	-176.517	13.9437	-60.8061	-152.875	19.0172	-78.6489	-119.476	12.7616	-66.2536	-173.478	-8.32327	-66.2228	-141.544	-14.9011	-69.1199	-137.512	-12.0429	-31.3386	-160.642	-27.5865	-47.1216	-136.083	-28.1428	-29.9474	-151.037	-21.005	-2.16905	-162.152	-48.5908	-29.5369	-143.92	-39.709	-10.063	-163.229	-26.6899	9.77397	-212.207	-24.7416	-19.164	-227.192	-29.0492	9.18369	-218.199	2.97281	-5.30919	
188	1.56667	-188.549	21.1016	15.7235	-158.103	21.1933	-4.36464	-137.533	11.1897	-26.4382	-130.566	-11.767	-38.9689	-180.726	18.126	-59.9857	-159.107	25.3464	-81.4625	-125.531	19.5502	-77.1231	-175.544	-11.0512	-63.1064	-141.488	-10.0106	-69.5284	-140.686	-6.76767	-26.6612	-159.79	-29.2792	-45.8218	-135.29	-28.3636	-26.9855	-155.163	-16.6896	-1.75577	-158.628	-43.2394	-29.6423	-143.069	-38.0822	-9.73461	-162.806	-28.2462	10.7202	-212.985	-29.6858	-20.7947	-228.079	-27.7275	11.968	-217.849	4.04255	-6.77487	
189	1.575	-187.683	22.0141	15.0061	-160.783	19.3921	-4.85131	-137.288	13.246	-25.2522	-129.055	-10.5097	-40.8295	-185.445	22.2901	-56.8962	-165.701	29.8322	-84.3219	-134.363	28.9764	-84.9475	-175.006	-6.58076	-64.57	-141.682	-9.48755	-69.7329	-141.849	-7.64089	-28.3388	-158.717	-23.1024	-47.6118	-134.976	-26.0637	-25.4506	-156.626	-14.0359	-1.52677	-157.924	-42.3595	-31.036	-143.606	-32.58	-12.3677	-165.179	-23.2027	8.62173	-214.568	-24.2646	-16.792	-228.158	-27.2176	11.7634	-216.385	7.43295	-3.15399	
190	1.58333	-186.724	25.5706	15.7033	-157.9	23.288	-6.82663	-138.086	14.5317	-28.8995	-130.768	-6.55108	-42.4995	-189.015	22.5504	-55.7281	-175.7	28.3477	-84.7532	-141.918	31.8922	-90.8381	-175.432	-4.20721	-65.9424	-140.879	-3.28544	-68.7312	-142.011	-5.17775	-30.1573	-162.38	-26.0949	-46.5653	-135.732	-20.9887	-31.4025	-155.854	-15.3982	-2.98005	-163.786	-40.0116	-31.8952	-143.263	-29.897	-13.8724	-165.316	-19.8478	7.90229	-210.494	-26.6042	-19.8736	-224.276	-27.9236	8.67265	-218.08	9.49971	0.0744846	
191	1.59167	-187.673	23.0601	14.5042	-160.541	25.5329	-3.25722	-141.831	17.7682	-25.9453	-135.318	-4.07793	-42.6459	-193.01	25.3169	-56.3998	-183.099	35.1055	-86.2817	-154.372	35.5486	-97.0056	-178.2	-1.67389	-66.2914	-146.184	-4.34881	-72.7064	-144.08	-1.87977	-30.4764	-162.316	-17.725	-50.9505	-137.347	-20.6441	-33.0978	-155.393	-13.7814	-6.09785	-163.796	-35.2493	-34.568	-142.616	-29.5727	-18.3086	-164.495	-17.6578	2.8339	-213.391	-24.2693	-19.5664	-224.877	-26.2576	8.26625	-218.383	6.1184	0.556123	
192	1.6	-187.917	26.9148	17.2969	-161.371	27.7972	-6.81313	-145.351	17.9488	-30.5855	-133.91	-1.08143	-48.0158	-199.223	28.5157	-57.4083	-192.446	34.8751	-84.3204	-163.523	44.1578	-100.522	-183.109	-0.209946	-65.3643	-150.956	-2.64595	-74.2551	-144.245	-0.473645	-35.4247	-165.652	-19.708	-51.9447	-138.791	-18.6066	-37.1836	-155.931	-7.50763	-9.10471	-165.591	-38.9057	-36.1195	-143.508	-30.2862	-20.972	-161.576	-19.1612	3.71632	-215.124	-22.8056	-16.2604	-226.281	-22.8926	13.6577	-219.421	8.94361	0.714552	
193	1.60833	-191.315	27.5077	18.0435	-165.533	26.0366	-6.6059	-148.492	19.0591	-34.1384	-137.412	4.42772	-50.2724	-204.881	29.4092	-58.2072	-199.665	39.7685	-84.8153	-176.591	42.928	-106.114	-185.032	1.90639	-70.5546	-155.744	-0.284169	-77.3384	-148.612	0.0663938	-37.9884	-168.642	-19.4764	-54.8319	-142.558	-16.1445	-40.8591	-154.656	-10.4986	-12.3484	-171.502	-34.2423	-38.909	-145.903	-28.6668	-24.4718	-165.29	-17.1549	1.73902	-216.063	-23.7287	-19.9858	-229.295	-27.9747	11.1549	-221.734	10.5353	-0.296615	
194	1.61667	-193.087	24.239	12.9459	-168.407	28.181	-9.96695	-152.838	21.0865	-32.6005	-146.061	3.18917	-52.2355	-209.626	27.351	-57.542	-206.791	39.8784	-87.7496	-190.288	46.7329	-106.21	-191.694	3.29686	-70.1997	-158.985	1.91536	-78.2913	-152.283	0.733494	-41.783	-176.853	-18.1859	-55.3342	-147.325	-17.0977	-46.7093	-160.746	-7.6278	-13.5028	-174.416	-35.4876	-41.5018	-150.54	-24.7817	-27.4846	-166.303	-15.6543	-3.18574	-220.546	-23.9831	-17.7337	-228.388	-26.5938	12.4115	-225.452	7.33108	1.51588	
195	1.625	-195.425	24.3358	15.7343	-172.554	27.2995	-9.07627	-157.244	22.7663	-37.9612	-147.507	7.19166	-53.6917	-214.465	28.2536	-54.5582	-214.733	39.1009	-88.1816	-197.71	46.0673	-108.619	-197.104	2.39964	-72.4079	-167.612	0.479062	-83.0739	-157.961	4.09286	-41.0215	-180.91	-19.5295	-56.7393	-151.547	-17.8466	-49.3378	-160.276	-10.167	-17.0736	-176.495	-33.6515	-44.1953	-154.136	-25.6365	-34.2847	-169.09	-14.4639	-7.19291	-224.659	-22.4787	-19.4931	-230.846	-25.1482	8.99236	-227.901	7.96071	-3.388	
196	1.63333	-199.245	22.2519	12.8751	-176.521	28.0785	-9.82053	-159.835	24.5202	-37.1989	-152.719	4.35672	-59.9818	-219.857	28.546	-55.7822	-221.123	36.2192	-84.6506	-203.458	42.8359	-110.439	-203.218	0.946569	-70.4941	-170.301	0.249223	-82.3652	-160.635	7.36779	-42.7429	-184.012	-17.748	-59.8481	-154.264	-11.1908	-49.7345	-163.757	-5.86383	-19.2128	-181.213	-33.052	-45.5485	-156.577	-24.8965	-35.483	-169.599	-17.1013	-7.96054	-226.739	-25.3503	-19.2305	-234.776	-28.9265	10.5989	-231.133	9.34233	0.994358	
197	1.64167	-202.149	26.993	12.3113	-179.358	29.6006	-10.5539	-165.308	22.1672	-40.3801	-157.251	2.53405	-57.2892	-224.875	28.4986	-57.8469	-223.332	36.2799	-89.1523	-203.979	43.4813	-107.724	-207.592	-1.09738	-71.5851	-179.211	5.27601	-87.7743	-159.622	7.78688	-49.0552	-187.796	-16.1422	-60.2363	-158.374	-11.0901	-53.0788	-166.167	-8.52941	-20.7267	-183.601	-32.6276	-46.8502	-159.378	-24.7396	-36.2197	-167.626	-16.143	-9.23618	-228.532	-23.3541	-19.6527	-234.215	-28.96	13.9102	-232.616	6.20947	-2.31359	
198	1.65	-204.055	28.0671	15.9149	-184.531	29.7561	-12.6683	-170.417	24.5478	-38.8798	-167.181	-1.09648	-54.6983	-225.484	26.2823	-55.0403	-225.409	38.5235	-87.272	-198.515	39.3503	-104.257	-209.178	-0.330051	-74.8964	-179.315	2.00956	-88.7423	-155.708	7.94951	-57.4337	-191.086	-18.4364	-59.5294	-160.33	-14.8019	-51.4311	-167.605	-6.36088	-21.9015	-187.262	-34.5894	-45.95	-160.653	-26.0199	-36.8147	-169.478	-18.3712	-8.96321	-230.369	-24.8204	-21.3239	-235.301	-27.6063	12.0846	-235.789	6.37155	1.68141	
199	1.65833	-206.002	23.5157	11.1461	-188.124	29.6545	-16.4948	-174.015	23.4056	-45.8264	-170.07	0.609946	-54.3293	-230.037	22.9539	-59.1583	-224.302	32.858	-88.6829	-191.816	37.4906	-95.5614	-213.528	2.8808	-74.6131	-186.412	3.76026	-90.0637	-159.906	5.29248	-61.1708	-193.252	-15.2107	-60.4775	-163.89	-11.4698	-53.8361	-172.845	-7.52863	-20.9016	-183.848	-33.327	-49.2285	-163.648	-23.9274	-38.5022	-172.625	-20.6809	-9.2777	-231.299	-21.208	-20.1539	-236.937	-28.9879	12.0733	-237.811	10.1934	-2.06932	
200	1.66667	-207.109	25.7987	8.53908	-187.696	30.813	-18.7357	-172.285	26.4701	-46.4912	-169.349	1.95379	-57.9811	-232.401	20.897	-62.5197	-223.577	31.4572	-90.3017	-188.486	35.1521	-86.1644	-215.648	-2.14687	-71.8585	-183.731	7.07358	-88.3621	-169.881	4.3293	-53.0071	-196.436	-14.0533	-59.5112	-165.109	-12.2054	-55.2065	-174.462	-4.60902	-21.6753	-188.84	-31.7375	-47.7506	-164.856	-22.6891	-37.077	-176.025	-18.7624	-6.67874	-232.437	-25.5791	-17.0098	-236.718	-31.1003	13.0222	-239.078	3.68373	1.47196	
201	1.675	-206.752	27.7646	7.4815	-184.492	35.3253	-17.0411	-172.535	28.1395	-43.9789	-165.807	6.1205	-60.5309	-230.48	19.9743	-61.4949	-217.465	28.6691	-92.2324	-189.305	31.9595	-81.4798	-215.352	1.97106	-74.2955	-182.354	6.10972	-84.6616	-173.195	6.17605	-48.3391	-193.201	-17.7924	-62.7485	-164.668	-12.7809	-51.1403	-177.111	-6.53037	-19.4104	-186.916	-32.6368	-49.2163	-163.542	-21.6099	-33.599	-177.828	-17.9642	-8.88346	-232.894	-25.0279	-21.4913	-237.184	-27.565	14.1826	-240.015	5.58523	1.39475	
202	1.68333	-206.25	28.1145	11.589	-187.943	29.8335	-20.0212	-173.505	25.8186	-45.8412	-164.273	6.78119	-63.1178	-230.65	24.2253	-59.1772	-219.865	32.7478	-92.3204	-189.683	31.5712	-82.1009	-215.209	3.50944	-72.5824	-181.741	9.51015	-85.3586	-173.511	5.65969	-49.0586	-194.985	-11.5977	-62.0962	-165.744	-7.59203	-56.1993	-173.731	-3.67277	-23.1395	-185.289	-28.9471	-49.9446	-164.509	-21.0599	-38.3025	-176.688	-15.9167	-9.05096	-232.046	-21.4259	-21.2949	-238.285	-25.8586	11.3595	-237.445	6.93979	-3.10578	
